<svg width="32" height="32" viewBox="0 0 32 32" fill="none" xmlns="http://www.w3.org/2000/svg">
<rect width="32" height="32" rx="16" fill="#3C91E6"/>
<path d="M15.7143 25C15.162 25 14.7143 24.5523 14.7143 24V17.2857H8C7.44772 17.2857 7 16.838 7 16.2857V15.7143C7 15.162 7.44772 14.7143 8 14.7143H14.7143V8C14.7143 7.44772 15.162 7 15.7143 7H16.2857C16.838 7 17.2857 7.44772 17.2857 8V14.7143H24C24.5523 14.7143 25 15.162 25 15.7143V16.2857C25 16.838 24.5523 17.2857 24 17.2857H17.2857V24C17.2857 24.5523 16.838 25 16.2857 25H15.7143Z" fill="white"/>
</svg>
