<svg width="43" height="43" viewBox="0 0 43 43" fill="none" xmlns="http://www.w3.org/2000/svg">
<g clip-path="url(#clip0_18_85)">
<path d="M0 0L43 -7.59129e-08L43 43L7.59129e-08 43L0 0Z" fill="white"/>
<path d="M39.4391 39.4391L35.6766 39.4391L25.0609 25.8672L18.6109 33.3922L1.12683e-08 6.38281L0 0L4.3 -7.59129e-09L19.2156 21.7016L25.3969 14.5797L39.4391 32.5859L39.4391 39.4391Z" fill="#ED4C5C"/>
<path d="M43 -7.59129e-08L6.04688 -1.06752e-08L7.05469 1.41094L10.4141 1.41094L10.4141 6.31562L11.825 8.39844L11.825 1.41094L20.7609 1.41094L20.7609 10.3469L13.1688 10.3469L14.1766 11.7578L20.7609 11.7578L20.7609 17.6031L22.1719 15.9234L22.1719 11.6906L31.1078 11.6906L31.1078 19.5516L33.0563 22.1047L41.4547 22.1047L41.4547 31.0406L40.0437 31.0406L40.7156 31.9141L40.7156 32.4516L41.4547 32.4516L41.4547 41.3875L32.5859 41.3875L32.5859 37.625L31.175 35.8109L31.175 41.3875L22.2391 41.3875L22.2391 32.5859L28.5547 32.5859L27.4125 31.175L22.3734 31.175L20.7609 33.0563L20.7609 41.5891L11.825 41.5891L11.825 32.5859L16.3266 32.5859L15.3187 31.175L11.825 31.175L11.825 26.0688L10.4141 23.9859L10.4141 31.175L1.41094 31.175L1.41094 22.2391L9.1375 22.2391L8.12969 20.8281L1.41094 20.8281L1.41094 11.825L2.01563 11.825L1.57756e-08 8.93594L7.59129e-08 43L43 43L43 -7.59129e-08ZM10.4141 41.5891L1.41094 41.5891L1.41094 32.5859L10.3469 32.5859C10.4141 32.5859 10.4141 41.5891 10.4141 41.5891ZM31.175 10.4141L22.2391 10.4141L22.2391 1.41094L31.175 1.41094L31.175 10.4141ZM41.5891 10.4141L32.5859 10.4141L32.5859 1.41094L41.5219 1.41094L41.5219 10.4141L41.5891 10.4141ZM41.5891 20.7609L32.5859 20.7609L32.5859 11.825L41.5219 11.825L41.5219 20.7609L41.5891 20.7609Z" fill="#D0D5D8"/>
</g>
<defs>
<clipPath id="clip0_18_85">
<rect width="43" height="43" fill="white"/>
</clipPath>
</defs>
</svg>
