<svg width="43" height="43" viewBox="0 0 43 43" fill="none" xmlns="http://www.w3.org/2000/svg">
<g clip-path="url(#clip0_18_74)">
<path d="M0 0L43 -7.59129e-08L43 43L7.59129e-08 43L0 0Z" fill="white"/>
<path d="M39.4391 3.56091L35.6766 3.56091L25.0609 17.1328L18.6109 9.60779L5.8358e-08 36.6172L6.96263e-08 43L4.3 43L19.2156 21.2984L25.3969 28.4203L39.4391 10.414L39.4391 3.56091Z" fill="#52C18E"/>
<path d="M43 -7.59129e-08L0 0L6.01372e-08 34.0641L2.01563 31.175L1.41094 31.175L1.41094 22.2391L8.12969 22.2391L9.1375 20.8281L1.41094 20.8281L1.41094 11.825L10.3469 11.825L10.3469 19.0141L11.7578 16.9313L11.7578 11.825L15.2516 11.825L16.2594 10.4141L11.7578 10.4141L11.7578 1.41094L20.6937 1.41094L20.6937 9.94375L22.3063 11.825L27.3453 11.825L28.4875 10.4141L22.1719 10.4141L22.1719 1.41094L31.1078 1.41094L31.1078 6.9875L32.5188 5.17344L32.5188 1.41094L41.4547 1.41094L41.4547 10.3469L40.7156 10.3469L40.7156 10.8844L40.0437 11.7578L41.4547 11.7578L41.4547 20.6937L33.1234 20.6937L31.175 23.2469L31.175 31.1078L22.2391 31.1078L22.2391 26.875L20.8281 25.1953L20.8281 31.0406L14.2438 31.0406L13.2359 32.4516L20.8281 32.4516L20.8281 41.3875L11.825 41.3875L11.825 34.6016L10.4141 36.6844L10.4141 41.5891L7.05469 41.5891L6.04688 43L43 43L43 -7.59129e-08ZM10.4141 10.4141L1.41094 10.4141L1.41094 1.41094L10.3469 1.41094C10.4141 1.41094 10.4141 10.4141 10.4141 10.4141ZM31.175 41.5891L22.2391 41.5891L22.2391 32.5859L31.175 32.5859L31.175 41.5891ZM41.5891 41.5891L32.5859 41.5891L32.5859 32.5859L41.5219 32.5859L41.5219 41.5891L41.5891 41.5891ZM41.5891 31.175L32.5859 31.175L32.5859 22.2391L41.5219 22.2391L41.5219 31.175L41.5891 31.175Z" fill="#D0D5D8"/>
</g>
<defs>
<clipPath id="clip0_18_74">
<rect width="43" height="43" fill="white"/>
</clipPath>
</defs>
</svg>
