<svg width="20" height="20" viewBox="0 0 20 20" fill="none" xmlns="http://www.w3.org/2000/svg">
<path d="M4.99998 1.66669H12.5C12.942 1.66669 13.3659 1.84228 13.6785 2.15484C13.9911 2.4674 14.1666 2.89133 14.1666 3.33335V4.16669C14.1666 4.3877 14.0788 4.59966 13.9226 4.75594C13.7663 4.91222 13.5543 5.00002 13.3333 5.00002C13.1123 5.00002 12.9003 4.91222 12.7441 4.75594C12.5878 4.59966 12.5 4.3877 12.5 4.16669V3.33335H4.99998V16.6667H12.5V15.8334C12.5 15.6123 12.5878 15.4004 12.7441 15.2441C12.9003 15.0878 13.1123 15 13.3333 15C13.5543 15 13.7663 15.0878 13.9226 15.2441C14.0788 15.4004 14.1666 15.6123 14.1666 15.8334V16.6667C14.1666 17.1087 13.9911 17.5326 13.6785 17.8452C13.3659 18.1578 12.942 18.3334 12.5 18.3334H4.99998C4.55795 18.3334 4.13403 18.1578 3.82147 17.8452C3.50891 17.5326 3.33331 17.1087 3.33331 16.6667V3.33335C3.33331 2.89133 3.50891 2.4674 3.82147 2.15484C4.13403 1.84228 4.55795 1.66669 4.99998 1.66669Z" fill="#83BF4F"/>
<path d="M13.9958 13.5791C14.3208 13.9041 14.8458 13.9041 15.1708 13.5791L18.1608 10.5891C18.3171 10.4329 18.4048 10.221 18.4048 9.99998C18.4048 9.77901 18.3171 9.56709 18.1608 9.41082L15.1708 6.42082C15.0124 6.27764 14.8051 6.20081 14.5916 6.2062C14.3782 6.21159 14.1749 6.29878 14.024 6.44977C13.873 6.60075 13.7858 6.80397 13.7804 7.01742C13.775 7.23088 13.8518 7.43824 13.995 7.59665L15.5583 9.16665H8.33333C8.11232 9.16665 7.90036 9.25445 7.74408 9.41073C7.5878 9.56701 7.5 9.77897 7.5 9.99998C7.5 10.221 7.5878 10.433 7.74408 10.5892C7.90036 10.7455 8.11232 10.8333 8.33333 10.8333H15.5583L13.995 12.4033C13.8394 12.5595 13.7522 12.771 13.7523 12.9914C13.7525 13.2118 13.8401 13.4232 13.9958 13.5791Z" fill="#83BF4F"/>
</svg>
