<svg width="47" height="47" viewBox="0 0 47 47" fill="none" xmlns="http://www.w3.org/2000/svg">
<g clip-path="url(#clip0_18_26)">
<path d="M39.6563 34.4422C39.6563 43.3281 32.4594 43.3281 23.5 43.3281C14.5406 43.3281 7.34375 43.3281 7.34375 34.4422C7.34375 25.5563 14.6141 11.0156 23.5 11.0156C32.3859 11.0156 39.6563 25.4828 39.6563 34.4422Z" fill="#DBB471"/>
<path opacity="0.5" d="M39.6563 34.4422C39.6563 31.4313 38.8485 27.7594 37.3797 24.2344C37.6735 26.5109 37.086 30.55 30.1094 32.0922C20.1953 34.2219 25.336 37.0125 21.4438 37.3797C18.1391 37.6734 9.32658 36.3516 7.56408 31.3578C7.4172 32.4594 7.27032 33.4875 7.27032 34.5156C7.34376 43.3281 14.6141 43.3281 23.5 43.3281C32.386 43.3281 39.6563 43.3281 39.6563 34.4422Z" fill="#89664C"/>
<path d="M27.8328 30.1828C27.5391 28.714 26.2906 28.2734 24.9688 28.2L24.9688 26.1437C25.3359 26.2906 25.7766 26.5109 26.0703 26.7312C26.6578 27.0984 27.2453 26.1437 26.6578 25.7765C26.1438 25.4828 25.5563 25.189 24.9688 24.9687L24.9688 22.5453C24.9688 21.8109 23.8672 21.8109 23.8672 22.5453L23.8672 24.675C23.2797 24.6015 22.6922 24.6015 22.1047 24.675C22.0313 24.1609 21.8844 23.6469 21.7375 23.1328C21.5906 22.3984 20.4891 22.6922 20.7094 23.4265C20.8563 23.9406 20.9297 24.4547 21.0766 24.9687C21.0031 24.9687 21.0031 24.9687 20.9297 25.0422C19.4609 25.6297 18.5063 27.0984 19.6078 28.4937C20.1219 29.1547 20.7828 29.375 21.5172 29.5219C21.5906 30.4765 21.5906 31.4312 21.5906 32.3859C21.0766 32.0922 20.6359 31.6515 20.2688 31.2843C19.7547 30.7703 19.0203 31.5781 19.4609 32.0922C20.1219 32.8265 20.8563 33.3406 21.5906 33.7078C21.5906 34.5156 21.6641 35.3234 21.7375 36.1312C21.8109 36.8656 22.9125 36.8656 22.8391 36.1312C22.7656 35.3969 22.6922 34.7359 22.6922 34.0015C23.1328 34.075 23.5734 34.075 24.0141 34.075C24.0875 34.8094 24.1609 35.5437 24.2344 36.3515C24.3078 37.0859 25.4094 37.0859 25.3359 36.3515C25.2625 35.5437 25.1891 34.7359 25.1156 33.8547C26.7313 33.2672 28.2 32.0187 27.8328 30.1828ZM23.8672 25.7765L23.8672 28.2C23.5 28.2 23.2063 28.2734 22.9125 28.2734L22.5453 28.2734L22.325 25.6297C22.8391 25.6297 23.3531 25.7031 23.8672 25.7765ZM21.2234 28.1265C20.9297 28.0531 20.6359 27.8328 20.3422 27.6125C19.6813 26.9515 20.6359 26.364 21.2234 26.0703C21.2969 26.8047 21.3703 27.4656 21.4438 28.2C21.3703 28.2 21.2969 28.2 21.2234 28.1265ZM23.6469 32.8265C23.2797 32.9 22.9859 32.8265 22.6922 32.7531C22.6188 31.6515 22.6188 30.55 22.6188 29.375C23.0594 29.375 23.5 29.3015 23.9406 29.3015C23.9406 30.4765 24.0141 31.5781 24.0141 32.7531C23.8672 32.8265 23.7938 32.8265 23.6469 32.8265ZM26.0703 32.0187C25.7766 32.239 25.4094 32.3859 25.1156 32.5328C25.0422 31.4312 25.0422 30.4031 25.0422 29.3015L25.4094 29.3015C26.8047 29.5953 27.1719 31.1375 26.0703 32.0187Z" fill="#89664C"/>
<path d="M24.9688 40.3906L23.2797 40.3906L23.2797 43.3281L30.1094 47L45.5313 42.2266L45.5313 39.6563L39.8766 36.3516L24.9688 40.3906Z" fill="#699635"/>
<path d="M23.5 38.7016C23.5 38.7016 25.2625 41.5656 30.2563 44.0625C30.2563 44.0625 38.0406 43.6953 45.5313 38.7016C45.5313 38.7016 41.1984 36.5719 39.95 33.7812C39.95 33.7812 37.0125 37.8938 23.5 38.7016Z" fill="#83BF4F"/>
<path d="M20.1953 40.3172L21.8109 40.2438L22.0312 42.961L15.6422 47L0.293738 43.6953L0.0734253 41.2719L5.28749 37.6735L20.1953 40.3172Z" fill="#699635"/>
<path d="M21.4438 38.6281C21.4438 38.6281 19.9016 41.4922 15.275 44.2094C15.275 44.2094 7.71094 44.4297 9.07534e-09 40.3906C9.07534e-09 40.3906 4.1125 38.0406 5.06719 35.25C5.06719 35.25 8.29844 38.9219 21.4438 38.6281Z" fill="#83BF4F"/>
<path d="M17.7719 39.436C17.7719 39.436 17.5516 40.0235 18.5797 40.0969L15.8625 42.3735C15.8625 42.3735 14.2469 42.2266 13.8797 43.3282C13.8797 43.3282 7.27031 42.5938 3.01093 40.6844C3.01093 40.6844 3.89218 40.0235 2.79062 39.5828C2.79062 39.5828 4.03906 38.7016 4.33281 37.8938C4.33281 37.8938 5.50781 38.0407 5.87499 37.1594C6.02187 37.086 10.4281 39.7297 17.7719 39.436V39.436Z" stroke="#699635" stroke-miterlimit="10"/>
<path d="M6.46251 40.4641C7.23312 40.4641 7.85782 40.0366 7.85782 39.5094C7.85782 38.9821 7.23312 38.5547 6.46251 38.5547C5.6919 38.5547 5.0672 38.9821 5.0672 39.5094C5.0672 40.0366 5.6919 40.4641 6.46251 40.4641Z" fill="#699635"/>
<path d="M13.9531 38.3344C13.9531 38.3344 12.2641 40.5375 8.59218 43.5484L8.81249 45.5313L6.24218 44.9438L6.09531 42.8141C6.09531 42.8141 9.84062 39.3625 10.6484 37.6734C10.575 37.6734 11.8969 38.1141 13.9531 38.3344ZM30.9172 37.8203C30.9172 37.8203 31.5781 39.5828 36.5719 42.8141L36.5719 44.9438L39.4359 44.0625L39.4359 41.8594C39.4359 41.8594 35.9844 39.4359 33.9281 37.0125L30.9172 37.8203Z" fill="#F9F3D9"/>
<path d="M26.7313 35.4703L25.1156 35.3969L24.9688 38.4078L31.5047 42.5937L46.8531 38.4078L46.9266 35.7641L41.5656 32.0187L26.7313 35.4703Z" fill="#699635"/>
<path d="M25.4094 33.6344C25.4094 33.6344 27.025 36.7187 31.7984 39.5094C31.7984 39.5094 39.4359 39.5094 47 34.8094C47 34.8094 42.8141 32.3859 41.7859 29.375C41.7859 29.375 38.6281 33.4875 25.4094 33.6344Z" fill="#83BF4F"/>
<path d="M28.7141 34.4422C28.7141 34.4422 29.0813 35.0297 27.9063 35.25L30.9906 37.6734C30.9906 37.6734 32.7531 37.2328 33.3406 38.2609C33.3406 38.2609 40.6844 36.9391 44.0625 35.1766C44.0625 35.1766 42.9609 34.6625 44.0625 34.0016C44.0625 34.0016 42.7406 32.9 42.2266 32.1656C42.2266 32.1656 40.9781 32.5328 40.3172 31.6516C40.3172 31.725 37.6734 34.075 28.7141 34.4422V34.4422Z" stroke="#699635" stroke-miterlimit="10"/>
<path d="M34.3688 36.2781C34.075 36.6453 33.1203 36.7922 32.3125 36.5719C31.5047 36.3516 31.1375 35.8375 31.4313 35.4703C31.725 35.1031 32.6797 34.9563 33.4875 35.1766C34.2953 35.3969 34.6625 35.8375 34.3688 36.2781Z" fill="#699635"/>
<path d="M32.9 33.0469C32.9 33.0469 34.6625 35.3969 38.4078 38.5547L38.3344 40.7578L40.9047 40.0234L40.9781 37.6734C40.9781 37.6734 37.1594 34.0016 36.2047 32.2391C36.2781 32.2391 35.0297 32.7531 32.9 33.0469Z" fill="#F9F3D9"/>
<path d="M33.7813 1.46875C33.7813 5.94844 27.9797 13.2188 23.5 13.2188C19.0203 13.2188 13.2188 6.68281 13.2188 2.20313C13.2187 -2.27656 13.8797 2.20313 18.3594 2.20313C19.0203 2.20313 22.1047 -1.56874e-08 23.5 -1.81507e-08C24.4547 -1.98361e-08 27.1719 2.20313 28.6406 2.20313C32.5328 2.20313 33.7813 -1.90937 33.7813 1.46875Z" fill="#DBB471"/>
<path d="M22.1781 9.7672C21.7375 10.061 19.6078 9.84064 18.9469 10.3547C18.0656 11.0156 19.3141 12.5578 18.4328 13.5125C16.6703 15.275 15.275 17.2578 15.7156 18.3594C16.45 20.2688 17.8453 14.8344 19.0938 16.8906C20.3422 18.9469 20.1219 15.4953 22.0313 17.2578C23.9406 19.0203 22.325 14.1 24.1609 16.2297C25.9969 18.3594 26.0703 20.7828 27.3922 20.7828C28.9344 20.7828 25.7766 14.9813 27.8328 16.3766C29.8891 17.7719 32.1656 17.2578 30.1094 15.1281C29.4484 14.4672 28.5672 13.2922 27.5391 12.2641C27.1719 11.8969 27.4656 9.98751 27.0984 9.69376C26.6578 9.32658 25.5563 10.5016 25.1156 10.2813C24.2344 9.84064 24.5281 10.6485 23.2063 10.8688C22.325 11.1625 23.0594 9.1797 22.1781 9.7672Z" fill="#89664C"/>
<path d="M13.7328 14.1C16.5969 11.3828 21.8109 12.925 24.8953 14.2469C27.9062 15.5687 29.7422 11.3828 27.8328 9.25311C26.7312 8.00467 24.9687 9.47342 24.3078 10.3547C23.5734 11.2359 22.9859 12.1906 22.1781 13.0719C21.0031 14.3937 18.1391 13.2922 19.0203 11.4562C19.975 9.54686 24.0141 11.75 25.3359 12.1172C27.9062 12.8515 30.6234 13.1453 33.1937 12.1906C34.075 11.8969 33.7078 10.4281 32.8266 10.7953C29.9625 11.8234 27.0984 11.1625 24.3812 10.2812C22.9859 9.84061 20.7828 8.66561 19.3141 9.32654C15.1281 11.3094 19.0203 16.964 22.5453 14.7609C23.3531 14.2469 23.8672 13.439 24.4547 12.7047C24.8219 12.264 26.6578 9.47342 27.0984 10.8687C27.3187 11.6031 27.0984 12.925 26.2906 13.1453C25.7766 13.3656 24.7484 12.6312 24.2344 12.4844C23.2797 12.1172 22.325 11.8234 21.2969 11.6031C18.5797 11.0156 14.9078 11.1625 12.7781 13.1453C12.0437 13.7328 13.0719 14.7609 13.7328 14.1Z" fill="#E8E8E8"/>
<path d="M32.9 0.367187C32.1656 0.954688 30.8438 2.20313 28.6406 2.20313C27.1719 2.20313 24.4547 -1.85396e-08 23.5 -1.68542e-08C22.1047 -1.43909e-08 19.0203 2.20313 18.3594 2.20313C15.9359 2.20313 14.6141 0.954688 13.9531 0.440625C13.9531 0.440625 14.7609 3.74531 17.2578 5.43437C19.0938 6.60938 18.8734 5.21406 19.8281 3.89219C20.7828 2.57031 21.4438 1.90937 23.1328 5.21406C24.0141 7.05 25.7031 0.220312 27.025 2.42344C29.4484 6.4625 30.3297 4.25938 32.9 0.367187Z" fill="#89664C"/>
<path d="M38.4812 38.4812L38.4078 40.6844L40.9781 39.95L41.0516 37.6C41.0516 37.6734 39.5094 38.2609 38.4812 38.4812ZM36.5719 42.8875L36.5719 45.0172L39.4359 44.1359L39.4359 41.9328C39.3625 41.8593 38.6281 42.3 36.5719 42.8875ZM8.59218 43.475L8.8125 45.5312L6.24218 44.9437L6.09531 42.814C6.02187 42.814 7.04999 43.1812 8.59218 43.475Z" fill="#DBB471"/>
</g>
<defs>
<clipPath id="clip0_18_26">
<rect width="47" height="47" fill="white"/>
</clipPath>
</defs>
</svg>
